<mxfile host="app.diagrams.net" modified="2024-02-13T17:36:40.753Z" agent="Mozilla/5.0 (Windows NT 10.0; Win64; x64) AppleWebKit/537.36 (KHTML, like Gecko) Chrome/121.0.0.0 Safari/537.36" etag="TkA1xD0fiHoplFyKDe-7" version="21.3.8" type="google">
  <diagram name="PÃ¡gina-1" id="ZE6j-LuBt8QFlU5P1lew">
    <mxGraphModel grid="1" page="1" gridSize="10" guides="1" tooltips="1" connect="1" arrows="1" fold="1" pageScale="1" pageWidth="827" pageHeight="1169" math="0" shadow="0">
      <root>
        <mxCell id="0" />
        <mxCell id="1" parent="0" />
        <mxCell id="dL-8am0fA-FwttMLJVn--1" value="Funcionario" style="shape=umlActor;verticalLabelPosition=bottom;verticalAlign=top;html=1;" vertex="1" parent="1">
          <mxGeometry x="110" y="120" width="30" height="60" as="geometry" />
        </mxCell>
        <mxCell id="dL-8am0fA-FwttMLJVn--2" value="Subscribirse normativas" style="ellipse;whiteSpace=wrap;html=1;" vertex="1" parent="1">
          <mxGeometry x="210" y="70" width="120" height="80" as="geometry" />
        </mxCell>
        <mxCell id="dL-8am0fA-FwttMLJVn--3" value="Consultar &lt;br&gt;normativas" style="ellipse;whiteSpace=wrap;html=1;" vertex="1" parent="1">
          <mxGeometry x="210" y="170" width="120" height="80" as="geometry" />
        </mxCell>
        <mxCell id="dL-8am0fA-FwttMLJVn--6" value="Registrador&lt;br&gt;" style="shape=umlActor;verticalLabelPosition=bottom;verticalAlign=top;html=1;" vertex="1" parent="1">
          <mxGeometry x="110" y="300" width="30" height="60" as="geometry" />
        </mxCell>
        <mxCell id="dL-8am0fA-FwttMLJVn--7" value="Registrar normativa" style="ellipse;whiteSpace=wrap;html=1;" vertex="1" parent="1">
          <mxGeometry x="210" y="380" width="120" height="80" as="geometry" />
        </mxCell>
        <mxCell id="dL-8am0fA-FwttMLJVn--8" value="Borrar normativa" style="ellipse;whiteSpace=wrap;html=1;" vertex="1" parent="1">
          <mxGeometry x="210" y="490" width="120" height="80" as="geometry" />
        </mxCell>
        <mxCell id="dL-8am0fA-FwttMLJVn--9" value="loggearse" style="ellipse;whiteSpace=wrap;html=1;" vertex="1" parent="1">
          <mxGeometry x="354" y="290" width="120" height="80" as="geometry" />
        </mxCell>
        <mxCell id="dL-8am0fA-FwttMLJVn--11" value="" style="endArrow=classic;html=1;rounded=0;exitX=1;exitY=0.5;exitDx=0;exitDy=0;entryX=0.5;entryY=1;entryDx=0;entryDy=0;" edge="1" parent="1" source="dL-8am0fA-FwttMLJVn--7" target="dL-8am0fA-FwttMLJVn--9">
          <mxGeometry width="50" height="50" relative="1" as="geometry">
            <mxPoint x="330" y="320" as="sourcePoint" />
            <mxPoint x="370" y="360" as="targetPoint" />
          </mxGeometry>
        </mxCell>
        <mxCell id="dL-8am0fA-FwttMLJVn--14" value="uses" style="edgeLabel;html=1;align=center;verticalAlign=middle;resizable=0;points=[];" connectable="0" vertex="1" parent="dL-8am0fA-FwttMLJVn--11">
          <mxGeometry x="-0.45" y="-1" relative="1" as="geometry">
            <mxPoint x="7" y="6" as="offset" />
          </mxGeometry>
        </mxCell>
        <mxCell id="dL-8am0fA-FwttMLJVn--12" value="" style="endArrow=classic;html=1;rounded=0;exitX=1;exitY=0.5;exitDx=0;exitDy=0;entryX=0.5;entryY=1;entryDx=0;entryDy=0;" edge="1" parent="1" source="dL-8am0fA-FwttMLJVn--8" target="dL-8am0fA-FwttMLJVn--9">
          <mxGeometry width="50" height="50" relative="1" as="geometry">
            <mxPoint x="350" y="440" as="sourcePoint" />
            <mxPoint x="390" y="480" as="targetPoint" />
          </mxGeometry>
        </mxCell>
        <mxCell id="dL-8am0fA-FwttMLJVn--13" value="uses" style="edgeLabel;html=1;align=center;verticalAlign=middle;resizable=0;points=[];" connectable="0" vertex="1" parent="dL-8am0fA-FwttMLJVn--12">
          <mxGeometry x="-0.4231" y="-1" relative="1" as="geometry">
            <mxPoint as="offset" />
          </mxGeometry>
        </mxCell>
        <mxCell id="dL-8am0fA-FwttMLJVn--16" value="" style="endArrow=classic;html=1;rounded=0;exitX=0.5;exitY=0.5;exitDx=0;exitDy=0;exitPerimeter=0;entryX=0;entryY=0.5;entryDx=0;entryDy=0;" edge="1" parent="1" source="dL-8am0fA-FwttMLJVn--6" target="dL-8am0fA-FwttMLJVn--7">
          <mxGeometry width="50" height="50" relative="1" as="geometry">
            <mxPoint x="130" y="360" as="sourcePoint" />
            <mxPoint x="180" y="310" as="targetPoint" />
          </mxGeometry>
        </mxCell>
        <mxCell id="dL-8am0fA-FwttMLJVn--17" value="" style="endArrow=classic;html=1;rounded=0;exitX=0.5;exitY=0.5;exitDx=0;exitDy=0;exitPerimeter=0;entryX=0;entryY=0.5;entryDx=0;entryDy=0;" edge="1" parent="1" source="dL-8am0fA-FwttMLJVn--6" target="dL-8am0fA-FwttMLJVn--8">
          <mxGeometry width="50" height="50" relative="1" as="geometry">
            <mxPoint x="100" y="480" as="sourcePoint" />
            <mxPoint x="150" y="430" as="targetPoint" />
          </mxGeometry>
        </mxCell>
        <mxCell id="dL-8am0fA-FwttMLJVn--18" value="" style="endArrow=classic;html=1;rounded=0;exitX=0.5;exitY=0.5;exitDx=0;exitDy=0;exitPerimeter=0;entryX=0;entryY=0.5;entryDx=0;entryDy=0;" edge="1" parent="1" target="dL-8am0fA-FwttMLJVn--3">
          <mxGeometry width="50" height="50" relative="1" as="geometry">
            <mxPoint x="125" y="150" as="sourcePoint" />
            <mxPoint x="210" y="240" as="targetPoint" />
          </mxGeometry>
        </mxCell>
        <mxCell id="dL-8am0fA-FwttMLJVn--19" value="" style="endArrow=classic;html=1;rounded=0;exitX=0.5;exitY=0.5;exitDx=0;exitDy=0;exitPerimeter=0;entryX=0;entryY=0.5;entryDx=0;entryDy=0;" edge="1" parent="1" target="dL-8am0fA-FwttMLJVn--2">
          <mxGeometry width="50" height="50" relative="1" as="geometry">
            <mxPoint x="125" y="150" as="sourcePoint" />
            <mxPoint x="210" y="240" as="targetPoint" />
          </mxGeometry>
        </mxCell>
        <mxCell id="dL-8am0fA-FwttMLJVn--20" value="" style="endArrow=classic;html=1;rounded=0;exitX=0.5;exitY=0;exitDx=0;exitDy=0;exitPerimeter=0;" edge="1" parent="1" source="dL-8am0fA-FwttMLJVn--6" target="dL-8am0fA-FwttMLJVn--1">
          <mxGeometry width="50" height="50" relative="1" as="geometry">
            <mxPoint x="130" y="280" as="sourcePoint" />
            <mxPoint x="180" y="230" as="targetPoint" />
          </mxGeometry>
        </mxCell>
        <mxCell id="dL-8am0fA-FwttMLJVn--21" value="extends" style="edgeLabel;html=1;align=center;verticalAlign=middle;resizable=0;points=[];" connectable="0" vertex="1" parent="dL-8am0fA-FwttMLJVn--20">
          <mxGeometry x="-0.3" y="1" relative="1" as="geometry">
            <mxPoint as="offset" />
          </mxGeometry>
        </mxCell>
        <mxCell id="dL-8am0fA-FwttMLJVn--22" value="Buscar normativa" style="ellipse;whiteSpace=wrap;html=1;" vertex="1" parent="1">
          <mxGeometry x="390" y="130" width="120" height="80" as="geometry" />
        </mxCell>
        <mxCell id="dL-8am0fA-FwttMLJVn--23" value="" style="endArrow=classic;html=1;rounded=0;exitX=1;exitY=0.5;exitDx=0;exitDy=0;entryX=0;entryY=0.5;entryDx=0;entryDy=0;" edge="1" parent="1" source="dL-8am0fA-FwttMLJVn--3" target="dL-8am0fA-FwttMLJVn--22">
          <mxGeometry width="50" height="50" relative="1" as="geometry">
            <mxPoint x="190" y="240" as="sourcePoint" />
            <mxPoint x="275" y="300" as="targetPoint" />
          </mxGeometry>
        </mxCell>
        <mxCell id="dL-8am0fA-FwttMLJVn--24" value="use" style="edgeLabel;html=1;align=center;verticalAlign=middle;resizable=0;points=[];" connectable="0" vertex="1" parent="dL-8am0fA-FwttMLJVn--23">
          <mxGeometry x="-0.4154" y="-1" relative="1" as="geometry">
            <mxPoint as="offset" />
          </mxGeometry>
        </mxCell>
        <mxCell id="dL-8am0fA-FwttMLJVn--25" value="" style="endArrow=classic;html=1;rounded=0;exitX=0.5;exitY=0.5;exitDx=0;exitDy=0;exitPerimeter=0;" edge="1" parent="1" source="dL-8am0fA-FwttMLJVn--6" target="dL-8am0fA-FwttMLJVn--9">
          <mxGeometry width="50" height="50" relative="1" as="geometry">
            <mxPoint x="190" y="340" as="sourcePoint" />
            <mxPoint x="240" y="290" as="targetPoint" />
          </mxGeometry>
        </mxCell>
      </root>
    </mxGraphModel>
  </diagram>
</mxfile>
